# xmcd
#
# Track frame offsets: 
#        150
#        10695
#        25397
#        34922
#        44900
#        61000
#        78075
#        90370
#        105670
#        121122
#        138242
#        152042
#        170522
#        185320
#        193277
#        207145
#
# Disc length: 2944 seconds
#
# Revision: 6
# Processed by: cddbd v1.5.2PL0 Copyright (c) Steve Scherf et al.
# Submitted via: ExactAudioCopy v1.3
#
DISCID=c90b7e10
DTITLE=GONTITI - GUITARS
DYEAR=2001
DGENRE=Instrumental
TTITLE0=Laughing Voter Waltz
TTITLE1=small picnicker
TTITLE2=cora
TTITLE3=play on the slide
TTITLE4=cloudy tower
TTITLE5=エスカレーター
TTITLE6=回る男
TTITLE7=夕海月
TTITLE8=28
TTITLE9=KURO swing
TTITLE10=unconscious forest
TTITLE11=one note plant
TTITLE12=holiday walk
TTITLE13=Tin Ton Tan
TTITLE14=moderato summer
TTITLE15=a Piece of Biscuit
EXTD=YEAR: 2001
EXTT0=
EXTT1=
EXTT2=
EXTT3=
EXTT4=
EXTT5=
EXTT6=
EXTT7=
EXTT8=
EXTT9=
EXTT10=
EXTT11=
EXTT12=
EXTT13=
EXTT14=
EXTT15=
PLAYORDER=
